<svg width="517.18" height="100.27" version="1.1" viewBox="0 0 136.83713 26.529129" xmlns="http://www.w3.org/2000/svg" xmlns:xlink="http://www.w3.org/1999/xlink">
 <defs>
  <linearGradient id="linearGradient889">
   <stop stop-color="#f00" offset="0"/>
   <stop stop-color="#f00" stop-opacity="0" offset="1"/>
  </linearGradient>
  <linearGradient id="linearGradient861">
   <stop stop-color="#333" offset="0"/>
   <stop stop-color="#ccc" offset="1"/>
  </linearGradient>
  <linearGradient id="linearGradient863" x1="171.99" x2="171.99" y1="129.99" y2="119.33" gradientTransform="matrix(.95757 0 0 .95757 7.3633 5.9253)" gradientUnits="userSpaceOnUse" xlink:href="#linearGradient861"/>
  <radialGradient id="radialGradient891" cx="172.11" cy="125.3" r="1.76" gradientTransform="matrix(6.3759e-6 -1.6376 1.6342 5.1995e-5 -32.733 407.24)" gradientUnits="userSpaceOnUse" xlink:href="#linearGradient889"/>
 </defs>
 <g transform="translate(-43.567 -116.25)">
  <g>
   <path transform="scale(.26458)" d="m194.03 440.38-28.369 49.133v49.135h486.81l28.367-49.135h2e-3v-49.133z" fill="#8d8f91"/>
   <path transform="scale(.26458)" d="m194.03 440.38-3.791 6.5644h490.6v-6.5644z" fill="#4d4d4d"/>
   <g transform="translate(1.7644 -1.4012)">
    <circle cx="172.05" cy="125.33" r="4.5242" fill="url(#linearGradient863)"/>
    <circle cx="172.05" cy="125.33" r="4.2522"/>
    <circle cx="172.05" cy="125.33" r="2.2885" fill="#999"/>
    <circle cx="172.05" cy="125.33" r="1.8781"/>
    <circle cx="172.05" cy="125.33" r="1.76" fill="url(#radialGradient891)"/>
    <circle cx="171.31" cy="124.75" r=".42522" fill="#fff"/>
   </g>
   <g transform="translate(-121.54 9.6924)">
    <circle cx="172.05" cy="125.33" r="4.5242" fill="url(#linearGradient863)"/>
    <circle cx="172.05" cy="125.33" r="4.2522"/>
    <circle cx="172.05" cy="125.33" r="2.2885" fill="#999"/>
    <circle cx="172.05" cy="125.33" r="1.8781"/>
    <circle cx="172.05" cy="125.33" r="1.76" fill="url(#radialGradient891)"/>
    <circle cx="171.31" cy="124.75" r=".42522" fill="#fff"/>
   </g>
   <path d="m172.63 142.52 1.003-1.7368h-129.81v1.7368z" fill="#4d4d4d"/>
  </g>
 </g>
</svg>
